<?xml version="1.0" encoding="UTF-8"?>
<!-- Do not edit this file with editors other than draw.io -->
<!DOCTYPE svg PUBLIC "-//W3C//DTD SVG 1.1//EN" "http://www.w3.org/Graphics/SVG/1.1/DTD/svg11.dtd">
<svg xmlns="http://www.w3.org/2000/svg" xmlns:xlink="http://www.w3.org/1999/xlink" version="1.1" width="471px" height="471px" viewBox="-0.5 -0.5 471 471" content="&lt;mxfile host=&quot;app.diagrams.net&quot; modified=&quot;2024-05-21T18:03:36.038Z&quot; agent=&quot;Mozilla/5.0 (Windows NT 10.0; Win64; x64) AppleWebKit/537.36 (KHTML, like Gecko) Chrome/122.0.0.0 Safari/537.36&quot; etag=&quot;PKJWU4ETzvJ4ajc0k50T&quot; version=&quot;24.4.4&quot; type=&quot;google&quot; scale=&quot;1&quot; border=&quot;0&quot;&gt;&#10;  &lt;diagram name=&quot;Page-1&quot; id=&quot;vGo6mWW1Ldulnl07n3Fb&quot;&gt;&#10;    &lt;mxGraphModel dx=&quot;1102&quot; dy=&quot;797&quot; grid=&quot;1&quot; gridSize=&quot;10&quot; guides=&quot;1&quot; tooltips=&quot;1&quot; connect=&quot;1&quot; arrows=&quot;1&quot; fold=&quot;1&quot; page=&quot;1&quot; pageScale=&quot;1&quot; pageWidth=&quot;827&quot; pageHeight=&quot;1169&quot; math=&quot;0&quot; shadow=&quot;0&quot;&gt;&#10;      &lt;root&gt;&#10;        &lt;mxCell id=&quot;0&quot; /&gt;&#10;        &lt;mxCell id=&quot;1&quot; parent=&quot;0&quot; /&gt;&#10;        &lt;mxCell id=&quot;RMJv5nAs5hV92SsnbAb3-1&quot; value=&quot;&quot; style=&quot;rounded=0;whiteSpace=wrap;html=1;fillColor=none;&quot; parent=&quot;1&quot; vertex=&quot;1&quot;&gt;&#10;          &lt;mxGeometry x=&quot;190&quot; y=&quot;160&quot; width=&quot;470&quot; height=&quot;470&quot; as=&quot;geometry&quot; /&gt;&#10;        &lt;/mxCell&gt;&#10;        &lt;mxCell id=&quot;leQZtnLCjDEn4LbfMkHD-37&quot; value=&quot;&quot; style=&quot;shape=image;verticalLabelPosition=bottom;labelBackgroundColor=default;verticalAlign=top;aspect=fixed;imageAspect=0;image=data:image/svg+xml,PHN2ZyB4bWxucz0iaHR0cDovL3d3dy53My5vcmcvMjAwMC9zdmciIHN0eWxlPSJ3aWR0aDoyMDRweDtoZWlnaHQ6MzBweCIgZmlsbD0ibm9uZSIgaGVpZ2h0PSIzMCIgd2lkdGg9IjIwNCIgdmlld0JveD0iMCAwIDIwNCAzMCI+PGcgY2xpcC1wYXRoPSJ1cmwoI2EpIj48cGF0aCBkPSJNNTIuNjg4IDEzLjAyOGMtLjIyIDAtLjQzNy4wMDgtLjY1NC4wMTVhLjI5Ny4yOTcgMCAwIDAtLjEwMi4wMjQuMzY1LjM2NSAwIDAgMC0uMjM2LjI1NWwtLjkzIDMuMjQ5Yy0uNDAxIDEuMzk3LS4yNTIgMi42ODcuNDIyIDMuNjM0LjYxOC44NzYgMS42NDYgMS4zOSAyLjg5NCAxLjQ1bDUuMDQ1LjMwNmMuMTUuMDA4LjI4LjA4LjM1OS4xOTlhLjQ5Mi40OTIgMCAwIDEgLjA1MS40MzQuNjQuNjQgMCAwIDEtLjU0Ny40MjZsLTUuMjQyLjMwNmMtMi44NDguMTMyLTUuOTEyIDIuNDU2LTYuOTg3IDUuMjlsLS4zNzggMWEuMjguMjggMCAwIDAgLjI0OC4zODJoMTguMDU0YS40OC40OCAwIDAgMCAuNDY0LS4zNSAxMy4xMiAxMy4xMiAwIDAgMCAuNDgtMy41NGMwLTcuMjItNS43ODktMTMuMDcyLTEyLjkzMy0xMy4wNzIiIGZpbGw9IiNGQkFENDEiLz48cGF0aCBkPSJNODUuNTE5IDE4Ljg4NmgyLjk5djguMjQ5aDUuMjE4djIuNjQ3aC04LjIwOFYxOC44ODZabTExLjMgNS40Nzl2LS4wMzJjMC0zLjEzIDIuNDkzLTUuNjY1IDUuODIxLTUuNjY1IDMuMzI3IDAgNS43ODkgMi41MDggNS43ODkgNS42MzN2LjAzMmMwIDMuMTI5LTIuNDkzIDUuNjY1LTUuODIxIDUuNjY1cy01Ljc5LTIuNTA1LTUuNzktNS42MzNabTguNTYyIDB2LS4wMzJjMC0xLjU3My0xLjEyMy0yLjk0Mi0yLjc3My0yLjk0Mi0xLjY1IDAtMi43MjUgMS4zMzctMi43MjUgMi45MXYuMDMyYzAgMS41NzIgMS4xMjIgMi45NDIgMi43NTcgMi45NDIgMS42MzQgMCAyLjc0MS0xLjMzOCAyLjc0MS0yLjkxWm02LjcwNS42MzhWMTguODloMy4wMzN2Ni4wNTVjMCAxLjU3Mi43ODMgMi4zMTcgMS45ODUgMi4zMTcgMS4yMDEgMCAxLjk4NS0uNzE3IDEuOTg1LTIuMjQydi02LjEzNGgzLjAzMnY2LjAzOWMwIDMuNTE5LTEuOTg1IDUuMDU2LTUuMDQ5IDUuMDU2cy00Ljk5LTEuNTczLTQuOTktNC45OG0xNC42MTItNi4xMTJoNC4xNTljMy44NDggMCA2LjA4MSAyLjI0MSA2LjA4MSA1LjM4MnYuMDMyYzAgMy4xNC0yLjI2NSA1LjQ3Ny02LjE0NCA1LjQ3N2gtNC4wOTZWMTguODg2di4wMDRabTQuMjAyIDguMjE2YzEuNzg4IDAgMi45Ny0uOTk1IDIuOTctMi43NTR2LS4wMzJjMC0xLjc0NC0xLjE4NS0yLjc1NS0yLjk3LTIuNzU1aC0xLjIxN3Y1LjU0MWgxLjIxN1ptMTAuMzgxLTguMjE5aDguNjIxdjIuNjQ4aC01LjYzNnYxLjg1aDUuMDk2djIuNTA1aC01LjA5NnYzLjg5M2gtMi45ODVWMTguODg2Wm0xMi43NzcgMGgyLjk4OXY4LjI0OWg1LjIxOXYyLjY0N2gtOC4yMDhWMTguODg2Wm0xNi4wMTMtLjA3N2gyLjg3OGw0LjU4OSAxMC45NzFoLTMuMjAybC0uNzg4LTEuOTQ2aC00LjE1OWwtLjc2OCAxLjk0NmgtMy4xNDNsNC41ODktMTAuOTcxaC4wMDRabTIuNjE5IDYuNjc2LTEuMjAyLTMuMDk3LTEuMjE3IDMuMDk3aDIuNDE5Wm04LjY5Ny02LjU5Nmg1LjA5NmMxLjY0NyAwIDIuNzg5LjQzOCAzLjUwOSAxLjE4Mi42MzUuNjIxLjk1NCAxLjQ2NS45NTQgMi41MzZ2LjAzMmMwIDEuNjY0LS44NzkgMi43Ny0yLjIxOCAzLjM0NGwyLjU3MiAzLjc5N2gtMy40NWwtMi4xNy0zLjNoLTEuMzA4djMuM2gtMi45ODlWMTguODg2bC4wMDQuMDA0Wm00Ljk1OSA1LjIzYzEuMDE2IDAgMS42MDItLjQ5NyAxLjYwMi0xLjI5di0uMDMxYzAtLjg1Ni0uNjE0LTEuMjktMS42MTgtMS4yOWgtMS45NTR2Mi42MTZoMS45NzNsLS4wMDMtLjAwNFptOC45MTEtNS4yMzNoOC42Njl2Mi41NjhoLTUuNzExdjEuNjQ4aDUuMTc1djIuMzg0aC01LjE3NXYxLjcyOGg1Ljc5djIuNTY4aC04Ljc0OFYxOC44ODZaTTc4Ljk3NiAyNS42NDJjLS40MTguOTU2LTEuMyAxLjYzMy0yLjQ3IDEuNjMzLTEuNjMgMC0yLjc1Ni0xLjM3LTIuNzU2LTIuOTQyVjI0LjNjMC0xLjU3MyAxLjA5NC0yLjkxIDIuNzI1LTIuOTEgMS4yMjkgMCAyLjE2Ni43NjQgMi41NjQgMS44MDdoMy4xNDdjLS41MDUtMi41OTEtMi43NTctNC41My01LjY4My00LjUzLTMuMzI0IDAtNS44MjEgMi41MzYtNS44MjEgNS42NjV2LjAzMmMwIDMuMTI5IDIuNDYxIDUuNjMzIDUuNzkgNS42MzMgMi44NDMgMCA1LjA2OC0xLjg2NCA1LjY1NS00LjM2aC0zLjE1NWwuMDA0LjAwNFoiIGZpbGw9IiMwMDAiLz48cGF0aCBkPSJtNDQuODA4IDI5LjU3OC4zMzQtMS4xNzVjLjQwMi0xLjM5Ny4yNTMtMi42ODctLjQyLTMuNjM0LS42Mi0uODc2LTEuNjQ3LTEuMzktMi44OTYtMS40NWwtMjMuNjY1LS4zMDZhLjQ2Ny40NjcgMCAwIDEtLjM3NC0uMTk5LjQ5Mi40OTIgMCAwIDEtLjA1Mi0uNDM0LjY0LjY0IDAgMCAxIC41NTItLjQyNmwyMy44ODYtLjMwNmMyLjgzNi0uMTMxIDUuOS0yLjQ1NiA2Ljk3NS01LjI5bDEuMzYyLTMuNmEuOTE0LjkxNCAwIDAgMCAuMDQtLjQ3N0M0OC45OTggNS4yNTkgNDIuNzkgMCAzNS4zNjggMGMtNi44NDIgMC0xMi42NDcgNC40NjItMTQuNzMgMTAuNjY1YTYuOTIgNi45MiAwIDAgMC00LjkxMS0xLjM3NGMtMy4yOC4zMy01LjkyIDMuMDAyLTYuMjQ2IDYuMzE4YTcuMTQ4IDcuMTQ4IDAgMCAwIC4xOCAyLjQ3MmMtNS4zNi4xNi05LjY2IDQuNTk4LTkuNjYgMTAuMDUyIDAgLjQ5My4wMzUuOTc5LjEwNiAxLjQ1M2EuNDYuNDYgMCAwIDAgLjQ1Ny40MDJoNDMuNzA0YS41Ny41NyAwIDAgMCAuNTQtLjQxOCIgZmlsbD0iI0Y2ODIxRiIvPjwvZz48ZGVmcz48Y2xpcFBhdGggaWQ9ImEiPjxwYXRoIGQ9Ik0wIDBoMjA0djMwSDB6IiBmaWxsPSIjRkZGIi8+PC9jbGlwUGF0aD48L2RlZnM+PC9zdmc+;&quot; parent=&quot;1&quot; vertex=&quot;1&quot;&gt;&#10;          &lt;mxGeometry x=&quot;200&quot; y=&quot;170&quot; width=&quot;110&quot; height=&quot;16.18&quot; as=&quot;geometry&quot; /&gt;&#10;        &lt;/mxCell&gt;&#10;        &lt;mxCell id=&quot;CDG-6497LHgaiQJkfzjX-10&quot; style=&quot;edgeStyle=orthogonalEdgeStyle;rounded=0;orthogonalLoop=1;jettySize=auto;html=1;strokeWidth=2;&quot; edge=&quot;1&quot; parent=&quot;1&quot; source=&quot;CDG-6497LHgaiQJkfzjX-5&quot; target=&quot;CDG-6497LHgaiQJkfzjX-6&quot;&gt;&#10;          &lt;mxGeometry relative=&quot;1&quot; as=&quot;geometry&quot; /&gt;&#10;        &lt;/mxCell&gt;&#10;        &lt;mxCell id=&quot;CDG-6497LHgaiQJkfzjX-5&quot; value=&quot;Cloudflare&amp;#xa;Durable Objects&quot; style=&quot;shape=image;verticalLabelPosition=bottom;labelBackgroundColor=default;verticalAlign=top;aspect=fixed;imageAspect=0;image=data:image/svg+xml,PHN2ZyB4bWxucz0iaHR0cDovL3d3dy53My5vcmcvMjAwMC9zdmciIHZpZXdCb3g9IjAgMCA1MS44NCA1MiIgZGF0YS1uYW1lPSJMYXllciAyIiBpZD0iTGF5ZXJfMiI+JiN4YTsgIDxkZWZzPiYjeGE7ICAgIDxzdHlsZT4mI3hhOyAgICAgIC5jbHMtMSB7JiN4YTsgICAgICAgIGZpbGw6ICNmNjgyMWY7JiN4YTsgICAgICAgIGZpbGwtcnVsZTogZXZlbm9kZDsmI3hhOyAgICAgIH0mI3hhOyAgICA8L3N0eWxlPiYjeGE7ICA8L2RlZnM+JiN4YTsgIDxnIGRhdGEtbmFtZT0iTGF5ZXIgMSIgaWQ9IkxheWVyXzEtMiI+JiN4YTsgICAgPHBhdGggZD0ibTI2LjA0LDBoLS4yQzExLjQ4LjA5LS4wOSwxMS44LDAsMjYuMTZjLjA5LDE0LjM2LDExLjgsMjUuOTMsMjYuMTYsMjUuODQuMTgsMCwuMzUsMCwuNTMtLjAxLDE0LjAyLS40NiwyNS4xNC0xMS45NiwyNS4xNS0yNS45OSwwLTE0LjAzLTExLjEzLTI1LjUzLTI1LjE1LTI1Ljk5LS4yMi0uMDEtLjQzLS4wMi0uNjUtLjAxaDBabS05LjUsNi4wNmMtNy4wOSwzLjMxLTExLjksMTAuMTQtMTIuNjEsMTcuOTRoNy44Yy4wNS0xLjE5LjEzLTIuMzYuMjUtMy41MWw0LC4yNGMtLjEyLDEuMDktLjIsMi4xOC0uMjUsMy4yN2g4LjA5VjQuNTJjLTEuNzguODEtMy40OCwyLjU4LTQuOSw1LjQxLS4wOS4xOS0uMTguMzctLjI3LjU3bC0zLjg3LTEuMTVjLjE4LS40Mi4zOC0uODIuNTgtMS4yMi4zNi0uNzIuNzYtMS40MSwxLjE4LTIuMDdoMFptNy4yOSwyMS45NGgtOC4wOWMuMjMsNS41OCwxLjM5LDEwLjUsMy4xOSwxNC4wNywxLjQyLDIuODMsMy4xMiw0LjYsNC45LDUuNDF2LTE5LjQ4Wm0tNy4yOSwxNy45NGMtLjQzLS42Ny0uODMtMS4zNi0xLjE4LTIuMDctMi4xMy00LjIzLTMuMzktOS44LTMuNjItMTUuODdIMy45M2MuNzEsNy44LDUuNTEsMTQuNjMsMTIuNjEsMTcuOTRabTE5LjU1LS40N2M2LjU5LTMuNDcsMTAuOTgtMTAuMDQsMTEuNjYtMTcuNDdoLTcuMTVjLS4wNCwxLjItLjEzLDIuNC0uMjYsMy41OWwtNC0uMjRjLjEyLTEuMDguMjEtMi4yLjI2LTMuMzVoLTguNzd2MTkuNzRjMi4wMy0uNjQsMy45Ny0yLjQ5LDUuNTgtNS42Ny4wOS0uMTcuMTctLjM0LjI1LS41MmwzLjg3LDEuMTVjLS4xOC40LS4zNi43OS0uNTUsMS4xNy0uMjcuNTQtLjU3LDEuMDgtLjg4LDEuNmgwWm0uNS0yMS40N2gtOC43N1Y0LjI2YzIuMDMuNjQsMy45NywyLjQ5LDUuNTgsNS42NywxLjgsMy41NywyLjk3LDguNDksMy4xOSwxNC4wN1ptNCwwYy0uMjMtNi4wOC0xLjQ5LTExLjY0LTMuNjItMTUuODctLjI3LS41NC0uNTctMS4wOC0uODgtMS42LDYuNTksMy40NywxMC45OCwxMC4wNSwxMS42NiwxNy40N2gtNy4xNVoiIGNsYXNzPSJjbHMtMSIvPiYjeGE7ICA8L2c+JiN4YTs8L3N2Zz4=;&quot; vertex=&quot;1&quot; parent=&quot;1&quot;&gt;&#10;          &lt;mxGeometry x=&quot;379.13&quot; y=&quot;356&quot; width=&quot;78&quot; height=&quot;78&quot; as=&quot;geometry&quot; /&gt;&#10;        &lt;/mxCell&gt;&#10;        &lt;mxCell id=&quot;CDG-6497LHgaiQJkfzjX-6&quot; value=&quot;Cloudflare&amp;#xa;Queues&quot; style=&quot;shape=image;verticalLabelPosition=bottom;labelBackgroundColor=default;verticalAlign=top;aspect=fixed;imageAspect=0;image=data:image/svg+xml,PHN2ZyB4bWxucz0iaHR0cDovL3d3dy53My5vcmcvMjAwMC9zdmciIHZpZXdCb3g9IjAgMCAzOS4wMSAyNS45NSIgZGF0YS1uYW1lPSJMYXllciAyIiBpZD0iTGF5ZXJfMiI+JiN4YTsgIDxkZWZzPiYjeGE7ICAgIDxzdHlsZT4mI3hhOyAgICAgIC5jbHMtMSB7JiN4YTsgICAgICAgIGZpbGw6ICNmNjgyMWY7JiN4YTsgICAgICB9JiN4YTsgICAgPC9zdHlsZT4mI3hhOyAgPC9kZWZzPiYjeGE7ICA8ZyBkYXRhLW5hbWU9IkxheWVyIDEiIGlkPSJMYXllcl8xLTIiPiYjeGE7ICAgIDxwYXRoIGQ9Im0xMC42NSwxMi44OWwtNS44Mi01LjY4LTEuNjEsMS42NSwyLjY2LDIuNTlIMS40NGMtLjgsMC0xLjQ0LjY1LTEuNDQsMS40NHMuNjUsMS40NCwxLjQ0LDEuNDRoNC40M2wtMi42NSwyLjU5LDEuNjEsMS42NSw1LjgyLTUuNjhoMFptMjguMzUsMGwtNS44Mi01LjY4LTEuNjEsMS42NSwyLjY2LDIuNTloLTQuNDNjLS44LDAtMS40NC42NS0xLjQ0LDEuNDRzLjY1LDEuNDQsMS40NCwxLjQ0aDQuNDNsLTIuNjUsMi41OSwxLjYxLDEuNjVzNS44Mi01LjY4LDUuODItNS42OFoiIGNsYXNzPSJjbHMtMSIvPiYjeGE7ICAgIDxwYXRoIGQ9Im04Ljg1LDBoMjAuMTljLjgsMCwxLjQ0LjY1LDEuNDQsMS40NGgwYzAsLjgtLjY1LDEuNDQtMS40NCwxLjQ0SDguODVjLS44LDAtMS40NC0uNjUtMS40NC0xLjQ0aDBjMC0uOC42NS0xLjQ0LDEuNDQtMS40NFoiIGNsYXNzPSJjbHMtMSIvPiYjeGE7ICAgIDxwYXRoIGQ9Im04Ljg1LDIzLjA3aDIwLjE5Yy44LDAsMS40NC42NSwxLjQ0LDEuNDRoMGMwLC44LS42NSwxLjQ0LTEuNDQsMS40NEg4Ljg1Yy0uOCwwLTEuNDQtLjY1LTEuNDQtMS40NGgwYzAtLjguNjUtMS40NCwxLjQ0LTEuNDRaIiBjbGFzcz0iY2xzLTEiLz4mI3hhOyAgICA8cGF0aCBkPSJtMTMuMTgsNy4yMWMuOCwwLDEuNDQuNjQsMS40NCwxLjQ0djguNjVjMCwuOC0uNjUsMS40NC0xLjQ0LDEuNDQtLjgsMC0xLjQ0LS42NS0xLjQ0LTEuNDRoMHYtOC42NWMwLS44LjY1LTEuNDQsMS40NC0xLjQ0aDBabTUuNzcsMGMuOCwwLDEuNDQuNjQsMS40NCwxLjQ0djguNjVjMCwuOC0uNjUsMS40NC0xLjQ0LDEuNDRzLTEuNDQtLjY1LTEuNDQtMS40NHYtOC42NWMwLS44LjY1LTEuNDQsMS40NC0xLjQ0aDBabTUuNzcsMGMuOCwwLDEuNDQuNjQsMS40NCwxLjQ0djguNjVjMCwuOC0uNjUsMS40NC0xLjQ0LDEuNDRzLTEuNDQtLjY1LTEuNDQtMS40NHYtOC42NWMwLS44LjY1LTEuNDQsMS40NC0xLjQ0aDBaIiBjbGFzcz0iY2xzLTEiLz4mI3hhOyAgPC9nPiYjeGE7PC9zdmc+;spacingTop=8;&quot; vertex=&quot;1&quot; parent=&quot;1&quot;&gt;&#10;          &lt;mxGeometry x=&quot;523.13&quot; y=&quot;363.75&quot; width=&quot;93.75&quot; height=&quot;62.5&quot; as=&quot;geometry&quot; /&gt;&#10;        &lt;/mxCell&gt;&#10;        &lt;mxCell id=&quot;CDG-6497LHgaiQJkfzjX-9&quot; style=&quot;edgeStyle=orthogonalEdgeStyle;rounded=0;orthogonalLoop=1;jettySize=auto;html=1;entryX=0;entryY=0.5;entryDx=0;entryDy=0;strokeWidth=2;&quot; edge=&quot;1&quot; parent=&quot;1&quot; source=&quot;CDG-6497LHgaiQJkfzjX-7&quot; target=&quot;CDG-6497LHgaiQJkfzjX-5&quot;&gt;&#10;          &lt;mxGeometry relative=&quot;1&quot; as=&quot;geometry&quot; /&gt;&#10;        &lt;/mxCell&gt;&#10;        &lt;mxCell id=&quot;CDG-6497LHgaiQJkfzjX-7&quot; value=&quot;Cloudflare&amp;#xa;Workers&quot; style=&quot;shape=image;verticalLabelPosition=bottom;labelBackgroundColor=default;verticalAlign=top;aspect=fixed;imageAspect=0;image=data:image/svg+xml,PHN2ZyB4bWxucz0iaHR0cDovL3d3dy53My5vcmcvMjAwMC9zdmciIHZpZXdCb3g9IjAgMCAzNi4xOSAzNiIgZGF0YS1uYW1lPSJMYXllciAyIiBpZD0iTGF5ZXJfMiI+JiN4YTsgIDxkZWZzPiYjeGE7ICAgIDxzdHlsZT4mI3hhOyAgICAgIC5jbHMtMSB7JiN4YTsgICAgICAgIGZpbGw6ICNmNjgyMWY7JiN4YTsgICAgICB9JiN4YTsgICAgPC9zdHlsZT4mI3hhOyAgPC9kZWZzPiYjeGE7ICA8ZyBkYXRhLW5hbWU9IkxheWVyIDEiIGlkPSJMYXllcl8xLTIiPiYjeGE7ICAgIDxwYXRoIGQ9Im0xMi43MywzMC45MUwzLjA4LDE4LjAxLDEyLjY3LDUuNDhsLTEuODUtMi41M0wuMDEsMTcuMDl2MS44MXMxMC44NCwxNC41NCwxMC44NCwxNC41NGwxLjg3LTIuNTNaIiBjbGFzcz0iY2xzLTEiLz4mI3hhOyAgICA8cGF0aCBkPSJtMTYuMDksMGgtMy43MWwxMy4zOSwxOC4zLTEzLjA3LDE3LjdoMy43NGwxMy4wNi0xNy42OUwxNi4wOSwwWiIgY2xhc3M9ImNscy0xIi8+JiN4YTsgICAgPHBhdGggZD0ibTIzLjI3LDBoLTMuNzZsMTMuNiwxOC4wOC0xMy42LDE3LjkyaDMuNzZsMTIuOTEtMTcuMDF2LTEuODFMMjMuMjcsMFoiIGNsYXNzPSJjbHMtMSIvPiYjeGE7ICA8L2c+JiN4YTs8L3N2Zz4=;&quot; vertex=&quot;1&quot; parent=&quot;1&quot;&gt;&#10;          &lt;mxGeometry x=&quot;233.13&quot; y=&quot;356&quot; width=&quot;78&quot; height=&quot;78&quot; as=&quot;geometry&quot; /&gt;&#10;        &lt;/mxCell&gt;&#10;      &lt;/root&gt;&#10;    &lt;/mxGraphModel&gt;&#10;  &lt;/diagram&gt;&#10;&lt;/mxfile&gt;&#10;" style="background-color: rgb(255, 255, 255);"><defs/><rect fill="#ffffff" width="100%" height="100%" x="0" y="0"/><g><g><rect x="0" y="0" width="470" height="470" fill="none" stroke="rgb(0, 0, 0)" pointer-events="all"/></g><g><svg viewBox="0 0 204 30" width="110" height="16.18" fill="none" style="width: 204px; height: 30px; font-family: initial;" xmlns="http://www.w3.org/2000/svg" x="9.5" y="9.5"><g clip-path="url(#a)"><path fill="#FBAD41" d="M52.688 13.028c-.22 0-.437.008-.654.015a.297.297 0 0 0-.102.024.365.365 0 0 0-.236.255l-.93 3.249c-.401 1.397-.252 2.687.422 3.634.618.876 1.646 1.39 2.894 1.45l5.045.306c.15.008.28.08.359.199a.492.492 0 0 1 .051.434.64.64 0 0 1-.547.426l-5.242.306c-2.848.132-5.912 2.456-6.987 5.29l-.378 1a.28.28 0 0 0 .248.382h18.054a.48.48 0 0 0 .464-.35 13.12 13.12 0 0 0 .48-3.54c0-7.22-5.789-13.072-12.933-13.072"/><path fill="#000" d="M85.519 18.886h2.99v8.249h5.218v2.647h-8.208V18.886Zm11.3 5.479v-.032c0-3.13 2.493-5.665 5.821-5.665 3.327 0 5.789 2.508 5.789 5.633v.032c0 3.129-2.493 5.665-5.821 5.665s-5.79-2.505-5.79-5.633Zm8.562 0v-.032c0-1.573-1.123-2.942-2.773-2.942-1.65 0-2.725 1.337-2.725 2.91v.032c0 1.572 1.122 2.942 2.757 2.942 1.634 0 2.741-1.338 2.741-2.91Zm6.705.638V18.89h3.033v6.055c0 1.572.783 2.317 1.985 2.317 1.201 0 1.985-.717 1.985-2.242v-6.134h3.032v6.039c0 3.519-1.985 5.056-5.049 5.056s-4.99-1.573-4.99-4.98m14.612-6.112h4.159c3.848 0 6.081 2.241 6.081 5.382v.032c0 3.14-2.265 5.477-6.144 5.477h-4.096V18.886v.004Zm4.202 8.216c1.788 0 2.97-.995 2.97-2.754v-.032c0-1.744-1.185-2.755-2.97-2.755h-1.217v5.541h1.217Zm10.381-8.219h8.621v2.648h-5.636v1.85h5.096v2.505h-5.096v3.893h-2.985V18.886Zm12.777 0h2.989v8.249h5.219v2.647h-8.208V18.886Zm16.013-.077h2.878l4.589 10.971h-3.202l-.788-1.946h-4.159l-.768 1.946h-3.143l4.589-10.971h.004Zm2.619 6.676-1.202-3.097-1.217 3.097h2.419Zm8.697-6.596h5.096c1.647 0 2.789.438 3.509 1.182.635.621.954 1.465.954 2.536v.032c0 1.664-.879 2.77-2.218 3.344l2.572 3.797h-3.45l-2.17-3.3h-1.308v3.3h-2.989V18.886l.004.004Zm4.959 5.23c1.016 0 1.602-.497 1.602-1.29v-.031c0-.856-.614-1.29-1.618-1.29h-1.954v2.616h1.973l-.003-.004Zm8.911-5.233h8.669v2.568h-5.711v1.648h5.175v2.384h-5.175v1.728h5.79v2.568h-8.748V18.886ZM78.976 25.642c-.418.956-1.3 1.633-2.47 1.633-1.63 0-2.756-1.37-2.756-2.942V24.3c0-1.573 1.094-2.91 2.725-2.91 1.229 0 2.166.764 2.564 1.807h3.147c-.505-2.591-2.757-4.53-5.683-4.53-3.324 0-5.821 2.536-5.821 5.665v.032c0 3.129 2.461 5.633 5.79 5.633 2.843 0 5.068-1.864 5.655-4.36h-3.155l.004.004Z"/><path fill="#F6821F" d="m44.808 29.578.334-1.175c.402-1.397.253-2.687-.42-3.634-.62-.876-1.647-1.39-2.896-1.45l-23.665-.306a.467.467 0 0 1-.374-.199.492.492 0 0 1-.052-.434.64.64 0 0 1 .552-.426l23.886-.306c2.836-.131 5.9-2.456 6.975-5.29l1.362-3.6a.914.914 0 0 0 .04-.477C48.998 5.259 42.79 0 35.368 0c-6.842 0-12.647 4.462-14.73 10.665a6.92 6.92 0 0 0-4.911-1.374c-3.28.33-5.92 3.002-6.246 6.318a7.148 7.148 0 0 0 .18 2.472c-5.36.16-9.66 4.598-9.66 10.052 0 .493.035.979.106 1.453a.46.46 0 0 0 .457.402h43.704a.57.57 0 0 0 .54-.418"/></g><defs><clipPath id="a"><path fill="#FFF" d="M0 0h204v30H0z"/></clipPath></defs></svg></g><g><path d="M 267.13 235 L 300.13 235 L 324.89 235.08" fill="none" stroke="rgb(0, 0, 0)" stroke-width="2" stroke-miterlimit="10" pointer-events="stroke"/><path d="M 330.89 235.09 L 322.88 239.07 L 324.89 235.08 L 322.91 231.07 Z" fill="rgb(0, 0, 0)" stroke="rgb(0, 0, 0)" stroke-width="2" stroke-miterlimit="10" pointer-events="all"/></g><g><svg id="svg-image-tGHJMNk1QtMbanzlfrgP" data-name="Layer 2" viewBox="0 0 51.84 52" xmlns="http://www.w3.org/2000/svg" x="188.63" y="195.5" width="78" height="78" style="font-family: initial;">&#xa;  <defs>&#xa;    <style>#svg-image-tGHJMNk1QtMbanzlfrgP .cls-1 { fill: rgb(246, 130, 31); fill-rule: evenodd; }&#xa;</style>&#xa;  </defs>&#xa;  <g id="Layer_1-2" data-name="Layer 1">&#xa;    <path class="cls-1" d="m26.04,0h-.2C11.48.09-.09,11.8,0,26.16c.09,14.36,11.8,25.93,26.16,25.84.18,0,.35,0,.53-.01,14.02-.46,25.14-11.96,25.15-25.99,0-14.03-11.13-25.53-25.15-25.99-.22-.01-.43-.02-.65-.01h0Zm-9.5,6.06c-7.09,3.31-11.9,10.14-12.61,17.94h7.8c.05-1.19.13-2.36.25-3.51l4,.24c-.12,1.09-.2,2.18-.25,3.27h8.09V4.52c-1.78.81-3.48,2.58-4.9,5.41-.09.19-.18.37-.27.57l-3.87-1.15c.18-.42.38-.82.58-1.22.36-.72.76-1.41,1.18-2.07h0Zm7.29,21.94h-8.09c.23,5.58,1.39,10.5,3.19,14.07,1.42,2.83,3.12,4.6,4.9,5.41v-19.48Zm-7.29,17.94c-.43-.67-.83-1.36-1.18-2.07-2.13-4.23-3.39-9.8-3.62-15.87H3.93c.71,7.8,5.51,14.63,12.61,17.94Zm19.55-.47c6.59-3.47,10.98-10.04,11.66-17.47h-7.15c-.04,1.2-.13,2.4-.26,3.59l-4-.24c.12-1.08.21-2.2.26-3.35h-8.77v19.74c2.03-.64,3.97-2.49,5.58-5.67.09-.17.17-.34.25-.52l3.87,1.15c-.18.4-.36.79-.55,1.17-.27.54-.57,1.08-.88,1.6h0Zm.5-21.47h-8.77V4.26c2.03.64,3.97,2.49,5.58,5.67,1.8,3.57,2.97,8.49,3.19,14.07Zm4,0c-.23-6.08-1.49-11.64-3.62-15.87-.27-.54-.57-1.08-.88-1.6,6.59,3.47,10.98,10.05,11.66,17.47h-7.15Z"/>&#xa;  </g>&#xa;</svg></g><g><g fill="rgb(0, 0, 0)" font-family="Helvetica" text-anchor="middle" font-size="12px"><rect fill="rgb(255, 255, 255)" stroke="none" x="185" y="282" width="88" height="30" stroke-width="0"/><text x="227.63" y="291.5">Cloudflare</text><text x="227.63" y="305.5">Durable Objects</text></g></g><g><svg id="svg-image-S2kxD6CYi4Q1ideP3UTM" data-name="Layer 2" viewBox="0 0 39.01 25.95" xmlns="http://www.w3.org/2000/svg" x="332.63" y="203.25" width="93.75" height="62.5" style="font-family: initial;">&#xa;  <defs>&#xa;    <style>#svg-image-S2kxD6CYi4Q1ideP3UTM .cls-1 { fill: rgb(246, 130, 31); }&#xa;</style>&#xa;  </defs>&#xa;  <g id="Layer_1-2" data-name="Layer 1">&#xa;    <path class="cls-1" d="m10.65,12.89l-5.82-5.68-1.61,1.65,2.66,2.59H1.44c-.8,0-1.44.65-1.44,1.44s.65,1.44,1.44,1.44h4.43l-2.65,2.59,1.61,1.65,5.82-5.68h0Zm28.35,0l-5.82-5.68-1.61,1.65,2.66,2.59h-4.43c-.8,0-1.44.65-1.44,1.44s.65,1.44,1.44,1.44h4.43l-2.65,2.59,1.61,1.65s5.82-5.68,5.82-5.68Z"/>&#xa;    <path class="cls-1" d="m8.85,0h20.19c.8,0,1.44.65,1.44,1.44h0c0,.8-.65,1.44-1.44,1.44H8.85c-.8,0-1.44-.65-1.44-1.44h0c0-.8.65-1.44,1.44-1.44Z"/>&#xa;    <path class="cls-1" d="m8.85,23.07h20.19c.8,0,1.44.65,1.44,1.44h0c0,.8-.65,1.44-1.44,1.44H8.85c-.8,0-1.44-.65-1.44-1.44h0c0-.8.65-1.44,1.44-1.44Z"/>&#xa;    <path class="cls-1" d="m13.18,7.21c.8,0,1.44.64,1.44,1.44v8.65c0,.8-.65,1.44-1.44,1.44-.8,0-1.44-.65-1.44-1.44h0v-8.65c0-.8.65-1.44,1.44-1.44h0Zm5.77,0c.8,0,1.44.64,1.44,1.44v8.65c0,.8-.65,1.44-1.44,1.44s-1.44-.65-1.44-1.44v-8.65c0-.8.65-1.44,1.44-1.44h0Zm5.77,0c.8,0,1.44.64,1.44,1.44v8.65c0,.8-.65,1.44-1.44,1.44s-1.44-.65-1.44-1.44v-8.65c0-.8.65-1.44,1.44-1.44h0Z"/>&#xa;  </g>&#xa;</svg></g><g><g fill="rgb(0, 0, 0)" font-family="Helvetica" text-anchor="middle" font-size="12px"><rect fill="rgb(255, 255, 255)" stroke="none" x="352" y="282" width="57" height="30" stroke-width="0"/><text x="379.51" y="291.75">Cloudflare</text><text x="379.51" y="305.75">Queues</text></g></g><g><path d="M 121.13 235 L 180.89 235" fill="none" stroke="rgb(0, 0, 0)" stroke-width="2" stroke-miterlimit="10" pointer-events="stroke"/><path d="M 186.89 235 L 178.89 239 L 180.89 235 L 178.89 231 Z" fill="rgb(0, 0, 0)" stroke="rgb(0, 0, 0)" stroke-width="2" stroke-miterlimit="10" pointer-events="all"/></g><g><svg id="svg-image--TwKGTBTCTr_40Lt5Xjc" data-name="Layer 2" viewBox="0 0 36.19 36" xmlns="http://www.w3.org/2000/svg" x="42.63" y="195.5" width="78" height="78" style="font-family: initial;">&#xa;  <defs>&#xa;    <style>#svg-image--TwKGTBTCTr_40Lt5Xjc .cls-1 { fill: rgb(246, 130, 31); }&#xa;</style>&#xa;  </defs>&#xa;  <g id="Layer_1-2" data-name="Layer 1">&#xa;    <path class="cls-1" d="m12.73,30.91L3.08,18.01,12.67,5.48l-1.85-2.53L.01,17.09v1.81s10.84,14.54,10.84,14.54l1.87-2.53Z"/>&#xa;    <path class="cls-1" d="m16.09,0h-3.71l13.39,18.3-13.07,17.7h3.74l13.06-17.69L16.09,0Z"/>&#xa;    <path class="cls-1" d="m23.27,0h-3.76l13.6,18.08-13.6,17.92h3.76l12.91-17.01v-1.81L23.27,0Z"/>&#xa;  </g>&#xa;</svg></g><g><g fill="rgb(0, 0, 0)" font-family="Helvetica" text-anchor="middle" font-size="12px"><rect fill="rgb(255, 255, 255)" stroke="none" x="54" y="282" width="57" height="30" stroke-width="0"/><text x="81.63" y="291.5">Cloudflare</text><text x="81.63" y="305.5">Workers</text></g></g></g></svg>